<?xml version="1.0" encoding="UTF-8"?>
<svg version="1.1" xmlns="http://www.w3.org/2000/svg" width="218" height="181">
<path d="M0 0 C17.6647779 16.37025982 26.20788143 36.67783533 27.6875 60.44140625 C28.25784651 80.4415572 22.51184086 102.5721953 8.55859375 117.37109375 C7.99011719 117.22671875 7.42164063 117.08234375 6.8359375 116.93359375 C-3.12784611 114.53829352 -10.6985909 115.16836981 -19.69140625 120.18359375 C-27.55014359 126.43486209 -30.18375167 133.561388 -31.44140625 143.37109375 C-38.52985892 145.21704497 -45.12736591 145.75619912 -52.44140625 145.74609375 C-53.53485352 145.74593262 -54.62830078 145.74577148 -55.75488281 145.74560547 C-66.8670318 145.59068117 -77.1782698 143.71921644 -87.44140625 139.37109375 C-87.44140625 140.36109375 -87.44140625 141.35109375 -87.44140625 142.37109375 C-117.47140625 142.37109375 -147.50140625 142.37109375 -178.44140625 142.37109375 C-178.7627156 113.1230179 -178.7627156 113.1230179 -178.84343719 98.67761803 C-178.88777296 90.86427309 -178.94406007 83.05161122 -179.04492188 75.23876953 C-179.13327327 68.39172245 -179.17967258 61.54541521 -179.20042419 54.69783401 C-179.21521348 52.08463526 -179.24409405 49.47147727 -179.2872467 46.85859299 C-179.34527638 43.19959659 -179.35332091 39.54365938 -179.34960938 35.88427734 C-179.37837158 34.80246185 -179.40713379 33.72064636 -179.43676758 32.60604858 C-179.35743025 25.38373637 -179.35743025 25.38373637 -176.70921326 22.45619583 C-174.57995605 20.87808228 -174.57995605 20.87808228 -172.46465302 19.6328373 C-164.59447252 14.72481045 -159.42237492 2.92727162 -157.3984375 -5.734375 C-156.61882659 -9.35264047 -156.05151054 -12.9682805 -155.44140625 -16.62890625 C-150.82140625 -16.62890625 -146.20140625 -16.62890625 -141.44140625 -16.62890625 C-141.44140625 25.28109375 -141.44140625 67.19109375 -141.44140625 110.37109375 C-134.51140625 110.37109375 -127.58140625 110.37109375 -120.44140625 110.37109375 C-121.67890625 108.04046875 -122.91640625 105.70984375 -124.19140625 103.30859375 C-128.18203109 95.51492035 -130.65694527 87.94269533 -132.44140625 79.37109375 C-132.59222656 78.66082031 -132.74304688 77.95054688 -132.8984375 77.21875 C-133.22095987 75.2535137 -133.35843859 73.36231748 -133.44140625 71.37109375 C-133.49296875 70.23671875 -133.54453125 69.10234375 -133.59765625 67.93359375 C-134.32032674 44.06157751 -127.42790392 23.86630981 -111.69140625 5.68359375 C-82.06029093 -25.66134559 -32.8205548 -28.24758925 0 0 Z M-81.62890625 28.55859375 C-91.98070896 40.76111168 -94.3298286 54.81562611 -93.44140625 70.37109375 C-91.59994901 83.98627758 -87.35064941 94.64714063 -76.44140625 103.37109375 C-65.23089574 110.2584895 -52.93761094 111.01296092 -40.09765625 108.79296875 C-30.13060773 105.64246491 -23.35934505 98.75318697 -18.50390625 89.68359375 C-11.57720504 74.52326658 -10.52532725 59.26990243 -15.44140625 43.37109375 C-19.82031112 32.9914674 -25.85245008 23.75064712 -36.4609375 19.11328125 C-52.62407282 13.0560905 -69.68667474 15.90206054 -81.62890625 28.55859375 Z " fill="#FEFEFE" transform="translate(186.44140625,23.62890625)"/>
<path d="M0 0 C2.48503585 4.0664223 3.07000911 6.73491215 2.0625 11.375 C0.45326503 14.47852458 -0.94097267 16.59201424 -3.6875 18.75 C-8.31050801 20.03416889 -12.35044026 20.0098239 -16.75 18.25 C-19.6305515 15.78095586 -20.73166827 13.99249518 -21.9375 10.375 C-22.23364238 6.47005282 -22.10854366 2.93762293 -19.69921875 -0.27734375 C-13.23959289 -6.03592494 -6.41797625 -5.73521282 0 0 Z " fill="#FDFDFD" transform="translate(191.9375,157.625)"/>
</svg>
